<!-- <?xml version="1.0" encoding="iso-8859-1"?> -->
<svg version="1.1" xmlns="http://www.w3.org/2000/svg"	x="0px" y="0px"	viewBox="0 0 500 500"	style="enable-background:new 0 0 500 500;"	xml:space="preserve" >
	
<title>Home icon</title>
<desc>Home icon portfolio navigation</desc>
		<rect x="0" y="0" width="500" height="500" stroke="#000" stroke-width="1" fill="none" />
	<g id="svg-about-me-icon">
		<!-- head -->
		<path  d="M 50,170 C 90,-10 390,-10 450,170 " fill="#aaa"/>

		<!-- forehead -->
		<path d="M 50,170 C 90,90 360,80 450,170 " fill="#fafad2"/>
		
		<!-- face -->
		<rect x="50" y="170" width="400" height="160" fill="#fafad2" />
		
		<g id="temple-glasses">
			<line x1="55" x2="130" y1="200" y2="220" stroke="#222" stroke-width="10" stroke-linecap="round" />
			<ellipse cx="180" cy="230" rx="50" ry="60" stroke="#222" fill="#fff" stroke-width="10" />
		</g>
		<use href="#temple-glasses" transform="translate(500 0) scale(-1 1)" />
		
		<!-- glasses bridge -->
		<path d="M 235,220 C 230,205 270,205 265,220 " fill="#aaa" />
		
		<!-- beard -->
		<path d="M 50,320 C 70,470 410,470 450,320 " fill="#222"/>
		
		<!-- chin -->
		<path d="M 50,320 C 90,410 360,410 450,320 " fill="#fafad2"/>
		
	</g>
</svg>
