<!-- <?xml version="1.0" encoding="iso-8859-1"?> -->
<svg version="1.1" xmlns="http://www.w3.org/2000/svg"	x="0px" y="0px"	viewBox="0 0 500 500"	style="enable-background:new 0 0 500 500;"	xml:space="preserve" >
<title>Demo icon</title>
<desc>Demo icon portfolio navigation</desc>
	<rect x="0" y="0" width="500" height="500" stroke="#000" fill="none" stroke-width="1" />
	<g id="svg-icon-home" stroke="#000" stroke-width="15" fill="none">
		<circle cx="200" cy="100" r="45" />
		<path d="M 160,150
				C 120,170 90,180 80,210
				L 45,330
				A 10,20 20 0 0 90,330
				L 120,230
				L 120,370
				M 120,370
				Q 120,393 160,392
				M 155,392
				L 270,392
				Q 300,390, 300,360
				L 300,240
				L 350,300
				Q 360,320, 380,305
				L 430,250,
				A 10,30 40 0 0 390,240
				L 375,258
				L 310,180
				Q 290,160 245,145
				"
		/>
	</g>
	<!-- <use href="#svg-icon-home" transform="translate(500, 0) scale(-1, 1)" /> -->
</svg>
